<svg xmlns="http://www.w3.org/2000/svg" xmlns:xlink="http://www.w3.org/1999/xlink" width="500" zoomAndPan="magnify" viewBox="0 0 375 93.749996" height="125" preserveAspectRatio="xMidYMid meet" version="1.0"><defs><g/><clipPath id="d5a9e4555e"><path d="M 20 38 L 47 38 L 47 65 L 20 65 Z M 20 38 " clip-rule="nonzero"/></clipPath><clipPath id="d02bef3555"><path d="M 23.613281 35.308594 L 49.609375 41.695312 L 43.222656 67.695312 L 17.226562 61.304688 Z M 23.613281 35.308594 " clip-rule="nonzero"/></clipPath><clipPath id="b0c5f166dd"><path d="M 36.613281 38.503906 C 29.433594 36.738281 22.183594 41.128906 20.417969 48.308594 C 18.65625 55.484375 23.042969 62.734375 30.222656 64.5 C 37.402344 66.265625 44.652344 61.875 46.417969 54.695312 C 48.179688 47.515625 43.789062 40.265625 36.613281 38.503906 Z M 36.613281 38.503906 " clip-rule="nonzero"/></clipPath><clipPath id="869cda51fc"><path d="M 0 0 L 27 0 L 27 27 L 0 27 Z M 0 0 " clip-rule="nonzero"/></clipPath><clipPath id="2baca90aee"><path d="M 3.613281 -2.691406 L 29.609375 3.695312 L 23.222656 29.695312 L -2.773438 23.304688 Z M 3.613281 -2.691406 " clip-rule="nonzero"/></clipPath><clipPath id="6531142b6e"><path d="M 16.613281 0.503906 C 9.433594 -1.261719 2.183594 3.128906 0.417969 10.308594 C -1.34375 17.484375 3.042969 24.734375 10.222656 26.5 C 17.402344 28.265625 24.652344 23.875 26.417969 16.695312 C 28.179688 9.515625 23.789062 2.265625 16.613281 0.503906 Z M 16.613281 0.503906 " clip-rule="nonzero"/></clipPath><clipPath id="c4d827a1b7"><rect x="0" width="27" y="0" height="27"/></clipPath><clipPath id="59f2853c21"><path d="M 3 51 L 25 51 L 25 73 L 3 73 Z M 3 51 " clip-rule="nonzero"/></clipPath><clipPath id="a889e74e75"><path d="M 6.042969 48.820312 L 27.179688 54.011719 L 21.984375 75.152344 L 0.847656 69.957031 Z M 6.042969 48.820312 " clip-rule="nonzero"/></clipPath><clipPath id="7ad8e989dd"><path d="M 16.609375 51.417969 C 10.773438 49.980469 4.878906 53.550781 3.445312 59.386719 C 2.011719 65.226562 5.582031 71.121094 11.417969 72.554688 C 17.253906 73.988281 23.148438 70.417969 24.582031 64.582031 C 26.015625 58.746094 22.449219 52.851562 16.609375 51.417969 Z M 16.609375 51.417969 " clip-rule="nonzero"/></clipPath><clipPath id="bf792df283"><path d="M 0 0 L 22 0 L 22 22 L 0 22 Z M 0 0 " clip-rule="nonzero"/></clipPath><clipPath id="aef11b55e8"><path d="M 3.042969 -2.179688 L 24.179688 3.011719 L 18.984375 24.152344 L -2.152344 18.957031 Z M 3.042969 -2.179688 " clip-rule="nonzero"/></clipPath><clipPath id="09e3429e9e"><path d="M 13.609375 0.417969 C 7.773438 -1.019531 1.878906 2.550781 0.445312 8.386719 C -0.988281 14.226562 2.582031 20.121094 8.417969 21.554688 C 14.253906 22.988281 20.148438 19.417969 21.582031 13.582031 C 23.015625 7.746094 19.449219 1.851562 13.609375 0.417969 Z M 13.609375 0.417969 " clip-rule="nonzero"/></clipPath><clipPath id="5bc35b66da"><rect x="0" width="22" y="0" height="22"/></clipPath><clipPath id="670b2b4f34"><path d="M 42 2 L 67 2 L 67 27 L 42 27 Z M 42 2 " clip-rule="nonzero"/></clipPath><clipPath id="67d819641b"><path d="M 45.3125 0.351562 L 68.605469 6.074219 L 62.882812 29.363281 L 39.589844 23.640625 Z M 45.3125 0.351562 " clip-rule="nonzero"/></clipPath><clipPath id="c7242df138"><path d="M 56.960938 3.210938 C 50.527344 1.632812 44.03125 5.5625 42.453125 11.996094 C 40.871094 18.425781 44.804688 24.921875 51.238281 26.503906 C 57.667969 28.082031 64.164062 24.152344 65.742188 17.71875 C 67.324219 11.285156 63.390625 4.792969 56.960938 3.210938 Z M 56.960938 3.210938 " clip-rule="nonzero"/></clipPath><clipPath id="6482019aa7"><path d="M 0 0 L 25 0 L 25 25 L 0 25 Z M 0 0 " clip-rule="nonzero"/></clipPath><clipPath id="97ca9698ef"><path d="M 3.3125 -1.648438 L 26.605469 4.074219 L 20.882812 27.363281 L -2.410156 21.640625 Z M 3.3125 -1.648438 " clip-rule="nonzero"/></clipPath><clipPath id="c054ba7353"><path d="M 14.960938 1.210938 C 8.527344 -0.367188 2.03125 3.5625 0.453125 9.996094 C -1.128906 16.425781 2.804688 22.921875 9.238281 24.503906 C 15.667969 26.082031 22.164062 22.152344 23.742188 15.71875 C 25.324219 9.285156 21.390625 2.792969 14.960938 1.210938 Z M 14.960938 1.210938 " clip-rule="nonzero"/></clipPath><clipPath id="990c715db2"><rect x="0" width="25" y="0" height="25"/></clipPath><clipPath id="7a1883c7f0"><path d="M 14 7 L 49 7 L 49 43 L 14 43 Z M 14 7 " clip-rule="nonzero"/></clipPath><clipPath id="95a3aeea8c"><path d="M 18.910156 3.988281 L 52.585938 12.265625 L 44.3125 45.941406 L 10.632812 37.667969 Z M 18.910156 3.988281 " clip-rule="nonzero"/></clipPath><clipPath id="ea93ef48a3"><path d="M 35.746094 8.128906 C 26.449219 5.84375 17.058594 11.527344 14.773438 20.828125 C 12.488281 30.128906 18.171875 39.519531 27.472656 41.804688 C 36.773438 44.089844 46.164062 38.402344 48.449219 29.101562 C 50.734375 19.804688 45.046875 10.414062 35.746094 8.128906 Z M 35.746094 8.128906 " clip-rule="nonzero"/></clipPath><clipPath id="85540a5a66"><path d="M 0 0 L 35 0 L 35 36 L 0 36 Z M 0 0 " clip-rule="nonzero"/></clipPath><clipPath id="7893ab369d"><path d="M 4.910156 -3.011719 L 38.585938 5.265625 L 30.3125 38.941406 L -3.367188 30.667969 Z M 4.910156 -3.011719 " clip-rule="nonzero"/></clipPath><clipPath id="ba71fdab24"><path d="M 21.746094 1.128906 C 12.449219 -1.15625 3.058594 4.527344 0.773438 13.828125 C -1.511719 23.128906 4.171875 32.519531 13.472656 34.804688 C 22.773438 37.089844 32.164062 31.402344 34.449219 22.101562 C 36.734375 12.804688 31.046875 3.414062 21.746094 1.128906 Z M 21.746094 1.128906 " clip-rule="nonzero"/></clipPath><clipPath id="3affca4f48"><rect x="0" width="35" y="0" height="36"/></clipPath><clipPath id="e0713468e6"><rect x="0" width="69" y="0" height="76"/></clipPath></defs><g transform="matrix(1, 0, 0, 1, 9, 9)"><g clip-path="url(#e0713468e6)"><g clip-path="url(#d5a9e4555e)"><g clip-path="url(#d02bef3555)"><g clip-path="url(#b0c5f166dd)"><g transform="matrix(1, 0, 0, 1, 20, 38)"><g clip-path="url(#c4d827a1b7)"><g clip-path="url(#869cda51fc)"><g clip-path="url(#2baca90aee)"><g clip-path="url(#6531142b6e)"><path fill="#57cf8b" d="M 3.613281 -2.691406 L 29.609375 3.695312 L 23.222656 29.695312 L -2.773438 23.304688 Z M 3.613281 -2.691406 " fill-opacity="1" fill-rule="nonzero"/></g></g></g></g></g></g></g></g><g clip-path="url(#59f2853c21)"><g clip-path="url(#a889e74e75)"><g clip-path="url(#7ad8e989dd)"><g transform="matrix(1, 0, 0, 1, 3, 51)"><g clip-path="url(#5bc35b66da)"><g clip-path="url(#bf792df283)"><g clip-path="url(#aef11b55e8)"><g clip-path="url(#09e3429e9e)"><path fill="#16392e" d="M 3.042969 -2.179688 L 24.179688 3.011719 L 18.984375 24.152344 L -2.152344 18.957031 Z M 3.042969 -2.179688 " fill-opacity="1" fill-rule="nonzero"/></g></g></g></g></g></g></g></g><g clip-path="url(#670b2b4f34)"><g clip-path="url(#67d819641b)"><g clip-path="url(#c7242df138)"><g transform="matrix(1, 0, 0, 1, 42, 2)"><g clip-path="url(#990c715db2)"><g clip-path="url(#6482019aa7)"><g clip-path="url(#97ca9698ef)"><g clip-path="url(#c054ba7353)"><path fill="#2c14c4" d="M 3.3125 -1.648438 L 26.605469 4.074219 L 20.882812 27.363281 L -2.410156 21.640625 Z M 3.3125 -1.648438 " fill-opacity="1" fill-rule="nonzero"/></g></g></g></g></g></g></g></g><g clip-path="url(#7a1883c7f0)"><g clip-path="url(#95a3aeea8c)"><g clip-path="url(#ea93ef48a3)"><g transform="matrix(1, 0, 0, 1, 14, 7)"><g clip-path="url(#3affca4f48)"><g clip-path="url(#85540a5a66)"><g clip-path="url(#7893ab369d)"><g clip-path="url(#ba71fdab24)"><path fill="#006f46" d="M 4.910156 -3.011719 L 38.585938 5.265625 L 30.3125 38.941406 L -3.367188 30.667969 Z M 4.910156 -3.011719 " fill-opacity="1" fill-rule="nonzero"/></g></g></g></g></g></g></g></g></g></g><g fill="#000000" fill-opacity="1"><g transform="translate(94.301217, 62.282952)"><g><path d="M 33.296875 -22.328125 L 25.953125 -22.328125 C 25.671875 -24.210938 24.863281 -25.691406 23.53125 -26.765625 C 22.195312 -27.847656 20.535156 -28.390625 18.546875 -28.390625 C 15.890625 -28.390625 13.757812 -27.414062 12.15625 -25.46875 C 10.550781 -23.519531 9.75 -20.753906 9.75 -17.171875 C 9.75 -13.503906 10.554688 -10.71875 12.171875 -8.8125 C 13.785156 -6.90625 15.894531 -5.953125 18.5 -5.953125 C 20.4375 -5.953125 22.070312 -6.457031 23.40625 -7.46875 C 24.75 -8.476562 25.597656 -9.898438 25.953125 -11.734375 L 33.296875 -11.703125 C 33.035156 -9.597656 32.285156 -7.617188 31.046875 -5.765625 C 29.804688 -3.910156 28.117188 -2.40625 25.984375 -1.25 C 23.859375 -0.101562 21.328125 0.46875 18.390625 0.46875 C 15.316406 0.46875 12.578125 -0.222656 10.171875 -1.609375 C 7.765625 -2.992188 5.863281 -5 4.46875 -7.625 C 3.070312 -10.257812 2.375 -13.441406 2.375 -17.171875 C 2.375 -20.921875 3.078125 -24.109375 4.484375 -26.734375 C 5.898438 -29.359375 7.816406 -31.363281 10.234375 -32.75 C 12.648438 -34.132812 15.367188 -34.828125 18.390625 -34.828125 C 21.035156 -34.828125 23.421875 -34.335938 25.546875 -33.359375 C 27.679688 -32.378906 29.425781 -30.957031 30.78125 -29.09375 C 32.144531 -27.226562 32.984375 -24.972656 33.296875 -22.328125 Z M 33.296875 -22.328125 "/></g></g></g><g fill="#000000" fill-opacity="1"><g transform="translate(128.63454, 62.282952)"><g><path d="M 10 -34.359375 L 10 0 L 2.84375 0 L 2.84375 -34.359375 Z M 10 -34.359375 "/></g></g></g><g fill="#000000" fill-opacity="1"><g transform="translate(140.297891, 62.282952)"><g><path d="M 14.59375 0.5 C 11.957031 0.5 9.679688 -0.0351562 7.765625 -1.109375 C 5.847656 -2.191406 4.375 -3.722656 3.34375 -5.703125 C 2.320312 -7.691406 1.8125 -10.046875 1.8125 -12.765625 C 1.8125 -15.410156 2.320312 -17.734375 3.34375 -19.734375 C 4.375 -21.742188 5.828125 -23.304688 7.703125 -24.421875 C 9.578125 -25.535156 11.78125 -26.09375 14.3125 -26.09375 C 16.582031 -26.09375 18.628906 -25.613281 20.453125 -24.65625 C 22.285156 -23.695312 23.738281 -22.242188 24.8125 -20.296875 C 25.882812 -18.359375 26.421875 -15.929688 26.421875 -13.015625 L 26.421875 -11.046875 L 8.875 -11.046875 L 8.875 -11.03125 C 8.875 -9.113281 9.398438 -7.597656 10.453125 -6.484375 C 11.503906 -5.378906 12.921875 -4.828125 14.703125 -4.828125 C 15.898438 -4.828125 16.9375 -5.078125 17.8125 -5.578125 C 18.6875 -6.085938 19.300781 -6.832031 19.65625 -7.8125 L 26.265625 -7.375 C 25.765625 -4.988281 24.488281 -3.078125 22.4375 -1.640625 C 20.394531 -0.210938 17.78125 0.5 14.59375 0.5 Z M 8.875 -15.484375 L 19.6875 -15.484375 C 19.675781 -17.015625 19.179688 -18.273438 18.203125 -19.265625 C 17.234375 -20.265625 15.972656 -20.765625 14.421875 -20.765625 C 12.835938 -20.765625 11.535156 -20.25 10.515625 -19.21875 C 9.492188 -18.1875 8.945312 -16.941406 8.875 -15.484375 Z M 8.875 -15.484375 "/></g></g></g><g fill="#000000" fill-opacity="1"><g transform="translate(167.337249, 62.282952)"><g><path d="M 10.203125 0.484375 C 7.742188 0.484375 5.703125 -0.15625 4.078125 -1.4375 C 2.453125 -2.726562 1.640625 -4.648438 1.640625 -7.203125 C 1.640625 -9.117188 2.09375 -10.625 3 -11.71875 C 3.90625 -12.820312 5.09375 -13.625 6.5625 -14.125 C 8.03125 -14.632812 9.617188 -14.96875 11.328125 -15.125 C 13.554688 -15.351562 15.148438 -15.585938 16.109375 -15.828125 C 17.078125 -16.078125 17.5625 -16.613281 17.5625 -17.4375 L 17.5625 -17.546875 C 17.5625 -18.609375 17.226562 -19.429688 16.5625 -20.015625 C 15.894531 -20.597656 14.953125 -20.890625 13.734375 -20.890625 C 12.453125 -20.890625 11.429688 -20.609375 10.671875 -20.046875 C 9.910156 -19.484375 9.40625 -18.769531 9.15625 -17.90625 L 2.546875 -18.453125 C 3.035156 -20.796875 4.253906 -22.65625 6.203125 -24.03125 C 8.160156 -25.40625 10.679688 -26.09375 13.765625 -26.09375 C 15.679688 -26.09375 17.472656 -25.789062 19.140625 -25.1875 C 20.804688 -24.582031 22.148438 -23.640625 23.171875 -22.359375 C 24.191406 -21.085938 24.703125 -19.425781 24.703125 -17.375 L 24.703125 0 L 17.9375 0 L 17.9375 -3.578125 L 17.734375 -3.578125 C 17.109375 -2.378906 16.171875 -1.398438 14.921875 -0.640625 C 13.671875 0.109375 12.097656 0.484375 10.203125 0.484375 Z M 12.25 -4.4375 C 13.8125 -4.4375 15.09375 -4.890625 16.09375 -5.796875 C 17.101562 -6.710938 17.609375 -7.847656 17.609375 -9.203125 L 17.609375 -11.9375 C 17.328125 -11.75 16.894531 -11.582031 16.3125 -11.4375 C 15.726562 -11.289062 15.101562 -11.164062 14.4375 -11.0625 C 13.769531 -10.957031 13.171875 -10.863281 12.640625 -10.78125 C 11.390625 -10.601562 10.378906 -10.25 9.609375 -9.71875 C 8.847656 -9.195312 8.46875 -8.4375 8.46875 -7.4375 C 8.46875 -6.445312 8.820312 -5.695312 9.53125 -5.1875 C 10.238281 -4.6875 11.144531 -4.4375 12.25 -4.4375 Z M 12.25 -4.4375 "/></g></g></g><g fill="#000000" fill-opacity="1"><g transform="translate(193.554984, 62.282952)"><g><path d="M 2.84375 0 L 2.84375 -25.765625 L 9.78125 -25.765625 L 9.78125 -21.265625 L 10.046875 -21.265625 C 10.515625 -22.867188 11.300781 -24.082031 12.40625 -24.90625 C 13.507812 -25.726562 14.785156 -26.140625 16.234375 -26.140625 C 16.929688 -26.140625 17.570312 -26.050781 18.15625 -25.875 C 18.75 -25.707031 19.285156 -25.476562 19.765625 -25.1875 L 17.609375 -19.296875 C 17.273438 -19.460938 16.910156 -19.601562 16.515625 -19.71875 C 16.117188 -19.832031 15.675781 -19.890625 15.1875 -19.890625 C 13.738281 -19.890625 12.515625 -19.394531 11.515625 -18.40625 C 10.515625 -17.425781 10.007812 -16.148438 10 -14.578125 L 10 0 Z M 2.84375 0 "/></g></g></g><g fill="#000000" fill-opacity="1"><g transform="translate(212.612899, 62.282952)"><g/></g></g><g fill="#000000" fill-opacity="1"><g transform="translate(222.381492, 62.282952)"><g><path d="M 21.625 -24.46875 C 21.488281 -25.820312 20.90625 -26.875 19.875 -27.625 C 18.851562 -28.375 17.476562 -28.75 15.75 -28.75 C 13.96875 -28.75 12.601562 -28.382812 11.65625 -27.65625 C 10.707031 -26.925781 10.234375 -26.007812 10.234375 -24.90625 C 10.210938 -23.675781 10.738281 -22.742188 11.8125 -22.109375 C 12.894531 -21.484375 14.179688 -20.992188 15.671875 -20.640625 L 18.75 -19.90625 C 20.738281 -19.457031 22.507812 -18.804688 24.0625 -17.953125 C 25.613281 -17.109375 26.832031 -16.019531 27.71875 -14.6875 C 28.601562 -13.351562 29.046875 -11.726562 29.046875 -9.8125 C 29.035156 -6.664062 27.859375 -4.160156 25.515625 -2.296875 C 23.171875 -0.441406 19.90625 0.484375 15.71875 0.484375 C 11.539062 0.484375 8.210938 -0.460938 5.734375 -2.359375 C 3.253906 -4.265625 1.96875 -7.070312 1.875 -10.78125 L 8.90625 -10.78125 C 9.03125 -9.0625 9.707031 -7.769531 10.9375 -6.90625 C 12.175781 -6.039062 13.742188 -5.609375 15.640625 -5.609375 C 17.484375 -5.609375 18.953125 -6 20.046875 -6.78125 C 21.148438 -7.5625 21.707031 -8.578125 21.71875 -9.828125 C 21.707031 -10.992188 21.195312 -11.890625 20.1875 -12.515625 C 19.1875 -13.140625 17.753906 -13.675781 15.890625 -14.125 L 12.140625 -15.0625 C 9.242188 -15.757812 6.957031 -16.859375 5.28125 -18.359375 C 3.601562 -19.867188 2.769531 -21.890625 2.78125 -24.421875 C 2.769531 -26.503906 3.328125 -28.320312 4.453125 -29.875 C 5.578125 -31.4375 7.125 -32.648438 9.09375 -33.515625 C 11.0625 -34.390625 13.296875 -34.828125 15.796875 -34.828125 C 18.347656 -34.828125 20.578125 -34.390625 22.484375 -33.515625 C 24.390625 -32.640625 25.875 -31.425781 26.9375 -29.875 C 28 -28.320312 28.546875 -26.519531 28.578125 -24.46875 Z M 21.625 -24.46875 "/></g></g></g><g fill="#000000" fill-opacity="1"><g transform="translate(252.120453, 62.282952)"><g><path d="M 14.5 0.5 C 11.851562 0.5 9.582031 -0.0625 7.6875 -1.1875 C 5.789062 -2.3125 4.335938 -3.875 3.328125 -5.875 C 2.316406 -7.875 1.8125 -10.175781 1.8125 -12.78125 C 1.8125 -15.414062 2.320312 -17.734375 3.34375 -19.734375 C 4.363281 -21.734375 5.816406 -23.289062 7.703125 -24.40625 C 9.597656 -25.53125 11.847656 -26.09375 14.453125 -26.09375 C 16.703125 -26.09375 18.671875 -25.6875 20.359375 -24.875 C 22.054688 -24.0625 23.394531 -22.914062 24.375 -21.4375 C 25.351562 -19.957031 25.894531 -18.222656 26 -16.234375 L 19.25 -16.234375 C 19.0625 -17.523438 18.5625 -18.5625 17.75 -19.34375 C 16.9375 -20.132812 15.878906 -20.53125 14.578125 -20.53125 C 12.921875 -20.53125 11.585938 -19.863281 10.578125 -18.53125 C 9.578125 -17.195312 9.078125 -15.3125 9.078125 -12.875 C 9.078125 -10.414062 9.578125 -8.515625 10.578125 -7.171875 C 11.578125 -5.828125 12.910156 -5.15625 14.578125 -5.15625 C 15.804688 -5.15625 16.835938 -5.523438 17.671875 -6.265625 C 18.515625 -7.003906 19.039062 -8.0625 19.25 -9.4375 L 26 -9.4375 C 25.882812 -7.46875 25.347656 -5.734375 24.390625 -4.234375 C 23.441406 -2.742188 22.128906 -1.582031 20.453125 -0.75 C 18.773438 0.0820312 16.789062 0.5 14.5 0.5 Z M 14.5 0.5 "/></g></g></g><g fill="#000000" fill-opacity="1"><g transform="translate(278.673544, 62.282952)"><g><path d="M 2.84375 0 L 2.84375 -25.765625 L 9.78125 -25.765625 L 9.78125 -21.265625 L 10.046875 -21.265625 C 10.515625 -22.867188 11.300781 -24.082031 12.40625 -24.90625 C 13.507812 -25.726562 14.785156 -26.140625 16.234375 -26.140625 C 16.929688 -26.140625 17.570312 -26.050781 18.15625 -25.875 C 18.75 -25.707031 19.285156 -25.476562 19.765625 -25.1875 L 17.609375 -19.296875 C 17.273438 -19.460938 16.910156 -19.601562 16.515625 -19.71875 C 16.117188 -19.832031 15.675781 -19.890625 15.1875 -19.890625 C 13.738281 -19.890625 12.515625 -19.394531 11.515625 -18.40625 C 10.515625 -17.425781 10.007812 -16.148438 10 -14.578125 L 10 0 Z M 2.84375 0 "/></g></g></g><g fill="#000000" fill-opacity="1"><g transform="translate(297.731459, 62.282952)"><g><path d="M 19.375 -10.96875 L 19.375 -25.765625 L 26.515625 -25.765625 L 26.515625 0 L 19.65625 0 L 19.65625 -4.6875 L 19.390625 -4.6875 C 18.804688 -3.175781 17.835938 -1.960938 16.484375 -1.046875 C 15.140625 -0.128906 13.503906 0.328125 11.578125 0.328125 C 8.984375 0.328125 6.882812 -0.53125 5.28125 -2.25 C 3.675781 -3.976562 2.863281 -6.347656 2.84375 -9.359375 L 2.84375 -25.765625 L 10 -25.765625 L 10 -10.640625 C 10.007812 -9.117188 10.414062 -7.914062 11.21875 -7.03125 C 12.019531 -6.144531 13.097656 -5.703125 14.453125 -5.703125 C 15.742188 -5.703125 16.890625 -6.148438 17.890625 -7.046875 C 18.890625 -7.941406 19.382812 -9.25 19.375 -10.96875 Z M 19.375 -10.96875 "/></g></g></g><g fill="#000000" fill-opacity="1"><g transform="translate(325.911018, 62.282952)"><g><path d="M 2.984375 0 L 2.984375 -34.359375 L 10.125 -34.359375 L 10.125 -21.4375 L 10.34375 -21.4375 C 10.664062 -22.144531 11.125 -22.851562 11.71875 -23.5625 C 12.3125 -24.28125 13.09375 -24.878906 14.0625 -25.359375 C 15.039062 -25.847656 16.242188 -26.09375 17.671875 -26.09375 C 19.566406 -26.09375 21.300781 -25.601562 22.875 -24.625 C 24.457031 -23.65625 25.722656 -22.1875 26.671875 -20.21875 C 27.628906 -18.257812 28.109375 -15.800781 28.109375 -12.84375 C 28.109375 -9.96875 27.644531 -7.539062 26.71875 -5.5625 C 25.789062 -3.59375 24.535156 -2.101562 22.953125 -1.09375 C 21.378906 -0.0820312 19.613281 0.421875 17.65625 0.421875 C 16.269531 0.421875 15.09375 0.191406 14.125 -0.265625 C 13.164062 -0.722656 12.378906 -1.300781 11.765625 -2 C 11.160156 -2.695312 10.6875 -3.40625 10.34375 -4.125 L 10.03125 -4.125 L 10.03125 0 Z M 9.984375 -12.875 C 9.984375 -10.582031 10.453125 -8.738281 11.390625 -7.34375 C 12.335938 -5.957031 13.671875 -5.265625 15.390625 -5.265625 C 17.148438 -5.265625 18.492188 -5.972656 19.421875 -7.390625 C 20.347656 -8.804688 20.8125 -10.632812 20.8125 -12.875 C 20.8125 -15.113281 20.347656 -16.925781 19.421875 -18.3125 C 18.503906 -19.707031 17.160156 -20.40625 15.390625 -20.40625 C 13.660156 -20.40625 12.328125 -19.726562 11.390625 -18.375 C 10.453125 -17.019531 9.984375 -15.1875 9.984375 -12.875 Z M 9.984375 -12.875 "/></g></g></g></svg>