<svg xmlns="http://www.w3.org/2000/svg" xmlns:xlink="http://www.w3.org/1999/xlink" width="500" zoomAndPan="magnify" viewBox="0 0 375 93.749996" height="125" preserveAspectRatio="xMidYMid meet" version="1.0"><defs><g/><clipPath id="ca7fd9a4bf"><path d="M 17 32 L 41 32 L 41 57 L 17 57 Z M 17 32 " clip-rule="nonzero"/></clipPath><clipPath id="ca98e17de9"><path d="M 20.265625 30.492188 L 42.699219 36.003906 L 37.1875 58.4375 L 14.753906 52.925781 Z M 20.265625 30.492188 " clip-rule="nonzero"/></clipPath><clipPath id="6101387b1e"><path d="M 31.484375 33.246094 C 25.289062 31.722656 19.03125 35.511719 17.507812 41.707031 C 15.988281 47.902344 19.773438 54.160156 25.96875 55.683594 C 32.164062 57.203125 38.421875 53.414062 39.945312 47.21875 C 41.464844 41.023438 37.679688 34.769531 31.484375 33.246094 Z M 31.484375 33.246094 " clip-rule="nonzero"/></clipPath><clipPath id="16e25ea233"><path d="M 0 0 L 24 0 L 24 25 L 0 25 Z M 0 0 " clip-rule="nonzero"/></clipPath><clipPath id="3946015242"><path d="M 3.265625 -1.507812 L 25.699219 4.003906 L 20.1875 26.4375 L -2.246094 20.925781 Z M 3.265625 -1.507812 " clip-rule="nonzero"/></clipPath><clipPath id="121ff063f1"><path d="M 14.484375 1.246094 C 8.289062 -0.277344 2.03125 3.511719 0.507812 9.707031 C -1.011719 15.902344 2.773438 22.160156 8.96875 23.683594 C 15.164062 25.203125 21.421875 21.414062 22.945312 15.21875 C 24.464844 9.023438 20.679688 2.769531 14.484375 1.246094 Z M 14.484375 1.246094 " clip-rule="nonzero"/></clipPath><clipPath id="d8f863c458"><rect x="0" width="24" y="0" height="25"/></clipPath><clipPath id="2c38c1de0d"><path d="M 2 44 L 22 44 L 22 63 L 2 63 Z M 2 44 " clip-rule="nonzero"/></clipPath><clipPath id="a30c043ece"><path d="M 5.101562 42.148438 L 23.34375 46.632812 L 18.863281 64.871094 L 0.621094 60.390625 Z M 5.101562 42.148438 " clip-rule="nonzero"/></clipPath><clipPath id="240f606483"><path d="M 14.222656 44.390625 C 9.1875 43.152344 4.097656 46.234375 2.863281 51.269531 C 1.625 56.308594 4.703125 61.394531 9.742188 62.632812 C 14.777344 63.871094 19.863281 60.789062 21.101562 55.753906 C 22.339844 50.714844 19.261719 45.628906 14.222656 44.390625 Z M 14.222656 44.390625 " clip-rule="nonzero"/></clipPath><clipPath id="611f1b4998"><path d="M 0 0 L 20 0 L 20 19 L 0 19 Z M 0 0 " clip-rule="nonzero"/></clipPath><clipPath id="d5ffb492d0"><path d="M 3.101562 -1.851562 L 21.34375 2.632812 L 16.863281 20.871094 L -1.378906 16.390625 Z M 3.101562 -1.851562 " clip-rule="nonzero"/></clipPath><clipPath id="9a76fc08ba"><path d="M 12.222656 0.390625 C 7.1875 -0.847656 2.097656 2.234375 0.863281 7.269531 C -0.375 12.308594 2.703125 17.394531 7.742188 18.632812 C 12.777344 19.871094 17.863281 16.789062 19.101562 11.753906 C 20.339844 6.714844 17.261719 1.628906 12.222656 0.390625 Z M 12.222656 0.390625 " clip-rule="nonzero"/></clipPath><clipPath id="86742cf7c7"><rect x="0" width="20" y="0" height="19"/></clipPath><clipPath id="c1caf3a373"><path d="M 36 2 L 57 2 L 57 24 L 36 24 Z M 36 2 " clip-rule="nonzero"/></clipPath><clipPath id="e78b0519ba"><path d="M 38.992188 0.324219 L 59.089844 5.261719 L 54.152344 25.359375 L 34.054688 20.421875 Z M 38.992188 0.324219 " clip-rule="nonzero"/></clipPath><clipPath id="0d1dd47dc4"><path d="M 49.042969 2.792969 C 43.492188 1.429688 37.886719 4.824219 36.523438 10.371094 C 35.160156 15.921875 38.554688 21.527344 44.101562 22.890625 C 49.652344 24.253906 55.257812 20.863281 56.621094 15.3125 C 57.984375 9.761719 54.59375 4.15625 49.042969 2.792969 Z M 49.042969 2.792969 " clip-rule="nonzero"/></clipPath><clipPath id="6c28398eca"><path d="M 0 0 L 21 0 L 21 22 L 0 22 Z M 0 0 " clip-rule="nonzero"/></clipPath><clipPath id="36a1f81ad4"><path d="M 2.992188 -1.675781 L 23.089844 3.261719 L 18.152344 23.359375 L -1.945312 18.421875 Z M 2.992188 -1.675781 " clip-rule="nonzero"/></clipPath><clipPath id="29860f14de"><path d="M 13.042969 0.792969 C 7.492188 -0.570312 1.886719 2.824219 0.523438 8.371094 C -0.839844 13.921875 2.554688 19.527344 8.101562 20.890625 C 13.652344 22.253906 19.257812 18.863281 20.621094 13.3125 C 21.984375 7.761719 18.59375 2.15625 13.042969 0.792969 Z M 13.042969 0.792969 " clip-rule="nonzero"/></clipPath><clipPath id="5a45f38eb9"><rect x="0" width="21" y="0" height="22"/></clipPath><clipPath id="38c19a9e0f"><path d="M 12 6 L 43 6 L 43 37 L 12 37 Z M 12 6 " clip-rule="nonzero"/></clipPath><clipPath id="e30e01eebb"><path d="M 16.207031 3.464844 L 45.269531 10.605469 L 38.125 39.667969 L 9.066406 32.527344 Z M 16.207031 3.464844 " clip-rule="nonzero"/></clipPath><clipPath id="c46e33f912"><path d="M 30.738281 7.035156 C 22.710938 5.0625 14.609375 9.96875 12.636719 17.996094 C 10.664062 26.019531 15.570312 34.125 23.597656 36.097656 C 31.621094 38.066406 39.726562 33.160156 41.695312 25.136719 C 43.667969 17.109375 38.761719 9.007812 30.738281 7.035156 Z M 30.738281 7.035156 " clip-rule="nonzero"/></clipPath><clipPath id="077df9a88c"><path d="M 0 0 L 31 0 L 31 31 L 0 31 Z M 0 0 " clip-rule="nonzero"/></clipPath><clipPath id="c22540457b"><path d="M 4.207031 -2.535156 L 33.269531 4.605469 L 26.125 33.667969 L -2.933594 26.527344 Z M 4.207031 -2.535156 " clip-rule="nonzero"/></clipPath><clipPath id="17b9be5add"><path d="M 18.738281 1.035156 C 10.710938 -0.9375 2.609375 3.96875 0.636719 11.996094 C -1.335938 20.019531 3.570312 28.125 11.597656 30.097656 C 19.621094 32.066406 27.726562 27.160156 29.695312 19.136719 C 31.667969 11.109375 26.761719 3.007812 18.738281 1.035156 Z M 18.738281 1.035156 " clip-rule="nonzero"/></clipPath><clipPath id="c8e8965cca"><rect x="0" width="31" y="0" height="31"/></clipPath><clipPath id="0ca65cf2d6"><rect x="0" width="60" y="0" height="65"/></clipPath></defs><g transform="matrix(1, 0, 0, 1, 1, 14)"><g clip-path="url(#0ca65cf2d6)"><g clip-path="url(#ca7fd9a4bf)"><g clip-path="url(#ca98e17de9)"><g clip-path="url(#6101387b1e)"><g transform="matrix(1, 0, 0, 1, 17, 32)"><g clip-path="url(#d8f863c458)"><g clip-path="url(#16e25ea233)"><g clip-path="url(#3946015242)"><g clip-path="url(#121ff063f1)"><path fill="#57cf8b" d="M 3.265625 -1.507812 L 25.699219 4.003906 L 20.1875 26.4375 L -2.246094 20.925781 Z M 3.265625 -1.507812 " fill-opacity="1" fill-rule="nonzero"/></g></g></g></g></g></g></g></g><g clip-path="url(#2c38c1de0d)"><g clip-path="url(#a30c043ece)"><g clip-path="url(#240f606483)"><g transform="matrix(1, 0, 0, 1, 2, 44)"><g clip-path="url(#86742cf7c7)"><g clip-path="url(#611f1b4998)"><g clip-path="url(#d5ffb492d0)"><g clip-path="url(#9a76fc08ba)"><path fill="#295447" d="M 3.101562 -1.851562 L 21.34375 2.632812 L 16.863281 20.871094 L -1.378906 16.390625 Z M 3.101562 -1.851562 " fill-opacity="1" fill-rule="nonzero"/></g></g></g></g></g></g></g></g><g clip-path="url(#c1caf3a373)"><g clip-path="url(#e78b0519ba)"><g clip-path="url(#0d1dd47dc4)"><g transform="matrix(1, 0, 0, 1, 36, 2)"><g clip-path="url(#5a45f38eb9)"><g clip-path="url(#6c28398eca)"><g clip-path="url(#36a1f81ad4)"><g clip-path="url(#29860f14de)"><path fill="#4c65b2" d="M 2.992188 -1.675781 L 23.089844 3.261719 L 18.152344 23.359375 L -1.945312 18.421875 Z M 2.992188 -1.675781 " fill-opacity="1" fill-rule="nonzero"/></g></g></g></g></g></g></g></g><g clip-path="url(#38c19a9e0f)"><g clip-path="url(#e30e01eebb)"><g clip-path="url(#c46e33f912)"><g transform="matrix(1, 0, 0, 1, 12, 6)"><g clip-path="url(#c8e8965cca)"><g clip-path="url(#077df9a88c)"><g clip-path="url(#c22540457b)"><g clip-path="url(#17b9be5add)"><path fill="#006f46" d="M 4.207031 -2.535156 L 33.269531 4.605469 L 26.125 33.667969 L -2.933594 26.527344 Z M 4.207031 -2.535156 " fill-opacity="1" fill-rule="nonzero"/></g></g></g></g></g></g></g></g></g></g><g fill="#000000" fill-opacity="1"><g transform="translate(62.963713, 67.234604)"><g><path d="M 38.859375 -25.203125 L 29.203125 -25.203125 C 29.078125 -26.191406 28.8125 -27.082031 28.40625 -27.875 C 28.007812 -28.675781 27.484375 -29.359375 26.828125 -29.921875 C 26.179688 -30.484375 25.410156 -30.914062 24.515625 -31.21875 C 23.617188 -31.519531 22.628906 -31.671875 21.546875 -31.671875 C 19.628906 -31.671875 17.976562 -31.203125 16.59375 -30.265625 C 15.21875 -29.328125 14.160156 -27.96875 13.421875 -26.1875 C 12.679688 -24.414062 12.3125 -22.269531 12.3125 -19.75 C 12.3125 -17.125 12.6875 -14.925781 13.4375 -13.15625 C 14.1875 -11.394531 15.242188 -10.066406 16.609375 -9.171875 C 17.984375 -8.273438 19.609375 -7.828125 21.484375 -7.828125 C 22.546875 -7.828125 23.507812 -7.960938 24.375 -8.234375 C 25.238281 -8.503906 26.003906 -8.898438 26.671875 -9.421875 C 27.335938 -9.941406 27.882812 -10.578125 28.3125 -11.328125 C 28.738281 -12.085938 29.035156 -12.941406 29.203125 -13.890625 L 38.859375 -13.828125 C 38.691406 -12.078125 38.1875 -10.351562 37.34375 -8.65625 C 36.5 -6.957031 35.34375 -5.410156 33.875 -4.015625 C 32.40625 -2.617188 30.617188 -1.507812 28.515625 -0.6875 C 26.421875 0.132812 24.015625 0.546875 21.296875 0.546875 C 17.722656 0.546875 14.523438 -0.238281 11.703125 -1.8125 C 8.878906 -3.394531 6.648438 -5.695312 5.015625 -8.71875 C 3.378906 -11.738281 2.5625 -15.414062 2.5625 -19.75 C 2.5625 -24.101562 3.390625 -27.789062 5.046875 -30.8125 C 6.710938 -33.832031 8.957031 -36.125 11.78125 -37.6875 C 14.613281 -39.257812 17.785156 -40.046875 21.296875 -40.046875 C 23.691406 -40.046875 25.90625 -39.710938 27.9375 -39.046875 C 29.96875 -38.390625 31.753906 -37.425781 33.296875 -36.15625 C 34.835938 -34.894531 36.09375 -33.34375 37.0625 -31.5 C 38.03125 -29.664062 38.628906 -27.566406 38.859375 -25.203125 Z M 38.859375 -25.203125 "/></g></g></g><g fill="#000000" fill-opacity="1"><g transform="translate(102.907965, 67.234604)"><g><path d="M 12.421875 -39.515625 L 12.421875 0 L 2.984375 0 L 2.984375 -39.515625 Z M 12.421875 -39.515625 "/></g></g></g><g fill="#000000" fill-opacity="1"><g transform="translate(116.963412, 67.234604)"><g><path d="M 16.84375 0.5625 C 13.738281 0.5625 11.0625 -0.0507812 8.8125 -1.28125 C 6.570312 -2.507812 4.851562 -4.265625 3.65625 -6.546875 C 2.457031 -8.828125 1.859375 -11.546875 1.859375 -14.703125 C 1.859375 -17.765625 2.460938 -20.441406 3.671875 -22.734375 C 4.878906 -25.035156 6.582031 -26.820312 8.78125 -28.09375 C 10.976562 -29.375 13.566406 -30.015625 16.546875 -30.015625 C 18.660156 -30.015625 20.59375 -29.6875 22.34375 -29.03125 C 24.09375 -28.375 25.601562 -27.398438 26.875 -26.109375 C 28.144531 -24.828125 29.132812 -23.242188 29.84375 -21.359375 C 30.550781 -19.484375 30.90625 -17.328125 30.90625 -14.890625 L 30.90625 -12.546875 L 5.15625 -12.546875 L 5.15625 -18.015625 L 22.125 -18.015625 C 22.113281 -19.023438 21.875 -19.921875 21.40625 -20.703125 C 20.945312 -21.484375 20.316406 -22.09375 19.515625 -22.53125 C 18.710938 -22.976562 17.789062 -23.203125 16.75 -23.203125 C 15.6875 -23.203125 14.738281 -22.96875 13.90625 -22.5 C 13.070312 -22.03125 12.410156 -21.394531 11.921875 -20.59375 C 11.429688 -19.789062 11.175781 -18.878906 11.15625 -17.859375 L 11.15625 -12.296875 C 11.15625 -11.078125 11.390625 -10.015625 11.859375 -9.109375 C 12.335938 -8.203125 13.015625 -7.5 13.890625 -7 C 14.765625 -6.5 15.804688 -6.25 17.015625 -6.25 C 17.847656 -6.25 18.601562 -6.363281 19.28125 -6.59375 C 19.96875 -6.832031 20.554688 -7.175781 21.046875 -7.625 C 21.535156 -8.070312 21.898438 -8.625 22.140625 -9.28125 L 30.8125 -9.03125 C 30.445312 -7.082031 29.65625 -5.390625 28.4375 -3.953125 C 27.226562 -2.523438 25.640625 -1.414062 23.671875 -0.625 C 21.703125 0.164062 19.425781 0.5625 16.84375 0.5625 Z M 16.84375 0.5625 "/></g></g></g><g fill="#000000" fill-opacity="1"><g transform="translate(148.361656, 67.234604)"><g><path d="M 11.34375 0.5 C 9.457031 0.5 7.78125 0.179688 6.3125 -0.453125 C 4.851562 -1.085938 3.703125 -2.050781 2.859375 -3.34375 C 2.015625 -4.632812 1.59375 -6.257812 1.59375 -8.21875 C 1.59375 -9.863281 1.882812 -11.25 2.46875 -12.375 C 3.050781 -13.507812 3.847656 -14.429688 4.859375 -15.140625 C 5.878906 -15.847656 7.050781 -16.382812 8.375 -16.75 C 9.695312 -17.125 11.113281 -17.375 12.625 -17.5 C 14.300781 -17.65625 15.65625 -17.816406 16.6875 -17.984375 C 17.71875 -18.160156 18.46875 -18.410156 18.9375 -18.734375 C 19.40625 -19.066406 19.640625 -19.535156 19.640625 -20.140625 L 19.640625 -20.234375 C 19.640625 -21.222656 19.296875 -21.988281 18.609375 -22.53125 C 17.929688 -23.070312 17.015625 -23.34375 15.859375 -23.34375 C 14.609375 -23.34375 13.601562 -23.070312 12.84375 -22.53125 C 12.082031 -21.988281 11.601562 -21.242188 11.40625 -20.296875 L 2.703125 -20.609375 C 2.960938 -22.410156 3.628906 -24.019531 4.703125 -25.4375 C 5.773438 -26.851562 7.253906 -27.96875 9.140625 -28.78125 C 11.023438 -29.601562 13.289062 -30.015625 15.9375 -30.015625 C 17.820312 -30.015625 19.5625 -29.789062 21.15625 -29.34375 C 22.757812 -28.90625 24.148438 -28.265625 25.328125 -27.421875 C 26.515625 -26.578125 27.429688 -25.546875 28.078125 -24.328125 C 28.722656 -23.109375 29.046875 -21.710938 29.046875 -20.140625 L 29.046875 0 L 20.1875 0 L 20.1875 -4.125 L 19.953125 -4.125 C 19.421875 -3.125 18.742188 -2.273438 17.921875 -1.578125 C 17.109375 -0.890625 16.148438 -0.367188 15.046875 -0.015625 C 13.953125 0.328125 12.71875 0.5 11.34375 0.5 Z M 14.25 -5.671875 C 15.269531 -5.671875 16.1875 -5.875 17 -6.28125 C 17.820312 -6.695312 18.476562 -7.269531 18.96875 -8 C 19.457031 -8.726562 19.703125 -9.570312 19.703125 -10.53125 L 19.703125 -13.34375 C 19.429688 -13.207031 19.101562 -13.082031 18.71875 -12.96875 C 18.34375 -12.851562 17.925781 -12.742188 17.46875 -12.640625 C 17.019531 -12.535156 16.554688 -12.441406 16.078125 -12.359375 C 15.609375 -12.285156 15.15625 -12.21875 14.71875 -12.15625 C 13.832031 -12.007812 13.078125 -11.785156 12.453125 -11.484375 C 11.828125 -11.191406 11.347656 -10.8125 11.015625 -10.34375 C 10.691406 -9.875 10.53125 -9.320312 10.53125 -8.6875 C 10.53125 -7.707031 10.878906 -6.957031 11.578125 -6.4375 C 12.285156 -5.925781 13.175781 -5.671875 14.25 -5.671875 Z M 14.25 -5.671875 "/></g></g></g><g fill="#000000" fill-opacity="1"><g transform="translate(178.814633, 67.234604)"><g><path d="M 2.984375 0 L 2.984375 -29.640625 L 12.15625 -29.640625 L 12.15625 -24.234375 L 12.46875 -24.234375 C 13 -26.179688 13.875 -27.632812 15.09375 -28.59375 C 16.320312 -29.550781 17.75 -30.03125 19.375 -30.03125 C 19.8125 -30.03125 20.257812 -30 20.71875 -29.9375 C 21.1875 -29.882812 21.617188 -29.800781 22.015625 -29.6875 L 22.015625 -21.484375 C 21.566406 -21.640625 20.976562 -21.765625 20.25 -21.859375 C 19.519531 -21.953125 18.875 -22 18.3125 -22 C 17.1875 -22 16.175781 -21.75 15.28125 -21.25 C 14.394531 -20.757812 13.695312 -20.070312 13.1875 -19.1875 C 12.675781 -18.300781 12.421875 -17.269531 12.421875 -16.09375 L 12.421875 0 Z M 2.984375 0 "/></g></g></g><g fill="#000000" fill-opacity="1"><g transform="translate(200.335775, 67.234604)"><g/></g></g><g fill="#000000" fill-opacity="1"><g transform="translate(210.66802, 67.234604)"><g><path d="M 24.34375 -27.671875 C 24.21875 -29.078125 23.648438 -30.175781 22.640625 -30.96875 C 21.628906 -31.757812 20.191406 -32.15625 18.328125 -32.15625 C 17.085938 -32.15625 16.054688 -31.992188 15.234375 -31.671875 C 14.410156 -31.359375 13.789062 -30.921875 13.375 -30.359375 C 12.96875 -29.796875 12.757812 -29.15625 12.75 -28.4375 C 12.726562 -27.84375 12.847656 -27.320312 13.109375 -26.875 C 13.367188 -26.425781 13.753906 -26.03125 14.265625 -25.6875 C 14.773438 -25.34375 15.390625 -25.039062 16.109375 -24.78125 C 16.828125 -24.53125 17.640625 -24.304688 18.546875 -24.109375 L 21.9375 -23.34375 C 23.894531 -22.914062 25.617188 -22.347656 27.109375 -21.640625 C 28.609375 -20.929688 29.867188 -20.085938 30.890625 -19.109375 C 31.921875 -18.140625 32.695312 -17.015625 33.21875 -15.734375 C 33.75 -14.460938 34.019531 -13.035156 34.03125 -11.453125 C 34.019531 -8.960938 33.390625 -6.820312 32.140625 -5.03125 C 30.890625 -3.25 29.097656 -1.878906 26.765625 -0.921875 C 24.429688 0.0234375 21.617188 0.5 18.328125 0.5 C 15.023438 0.5 12.144531 0.00390625 9.6875 -0.984375 C 7.226562 -1.972656 5.316406 -3.476562 3.953125 -5.5 C 2.585938 -7.519531 1.890625 -10.070312 1.859375 -13.15625 L 11 -13.15625 C 11.070312 -11.882812 11.410156 -10.820312 12.015625 -9.96875 C 12.617188 -9.125 13.453125 -8.484375 14.515625 -8.046875 C 15.578125 -7.609375 16.8125 -7.390625 18.21875 -7.390625 C 19.5 -7.390625 20.59375 -7.5625 21.5 -7.90625 C 22.40625 -8.257812 23.101562 -8.742188 23.59375 -9.359375 C 24.082031 -9.972656 24.332031 -10.679688 24.34375 -11.484375 C 24.332031 -12.222656 24.101562 -12.859375 23.65625 -13.390625 C 23.207031 -13.929688 22.515625 -14.394531 21.578125 -14.78125 C 20.648438 -15.175781 19.460938 -15.539062 18.015625 -15.875 L 13.890625 -16.84375 C 10.472656 -17.625 7.78125 -18.890625 5.8125 -20.640625 C 3.84375 -22.398438 2.863281 -24.78125 2.875 -27.78125 C 2.863281 -30.226562 3.519531 -32.367188 4.84375 -34.203125 C 6.164062 -36.046875 8 -37.476562 10.34375 -38.5 C 12.6875 -39.53125 15.351562 -40.046875 18.34375 -40.046875 C 21.40625 -40.046875 24.0625 -39.53125 26.3125 -38.5 C 28.570312 -37.46875 30.328125 -36.015625 31.578125 -34.140625 C 32.828125 -32.273438 33.460938 -30.117188 33.484375 -27.671875 Z M 24.34375 -27.671875 "/></g></g></g><g fill="#000000" fill-opacity="1"><g transform="translate(245.191448, 67.234604)"><g><path d="M 16.828125 0.5625 C 13.703125 0.5625 11.019531 -0.078125 8.78125 -1.359375 C 6.550781 -2.648438 4.835938 -4.441406 3.640625 -6.734375 C 2.453125 -9.035156 1.859375 -11.695312 1.859375 -14.71875 C 1.859375 -17.75 2.457031 -20.410156 3.65625 -22.703125 C 4.851562 -25.003906 6.566406 -26.796875 8.796875 -28.078125 C 11.035156 -29.367188 13.703125 -30.015625 16.796875 -30.015625 C 19.535156 -30.015625 21.925781 -29.519531 23.96875 -28.53125 C 26.007812 -27.539062 27.601562 -26.140625 28.75 -24.328125 C 29.90625 -22.523438 30.515625 -20.410156 30.578125 -17.984375 L 21.765625 -17.984375 C 21.578125 -19.492188 21.0625 -20.679688 20.21875 -21.546875 C 19.382812 -22.410156 18.289062 -22.84375 16.9375 -22.84375 C 15.84375 -22.84375 14.882812 -22.535156 14.0625 -21.921875 C 13.238281 -21.316406 12.597656 -20.414062 12.140625 -19.21875 C 11.679688 -18.03125 11.453125 -16.5625 11.453125 -14.8125 C 11.453125 -13.0625 11.679688 -11.582031 12.140625 -10.375 C 12.597656 -9.175781 13.238281 -8.269531 14.0625 -7.65625 C 14.882812 -7.050781 15.84375 -6.75 16.9375 -6.75 C 17.8125 -6.75 18.585938 -6.9375 19.265625 -7.3125 C 19.941406 -7.6875 20.5 -8.234375 20.9375 -8.953125 C 21.375 -9.679688 21.648438 -10.566406 21.765625 -11.609375 L 30.578125 -11.609375 C 30.484375 -9.171875 29.875 -7.035156 28.75 -5.203125 C 27.625 -3.378906 26.046875 -1.960938 24.015625 -0.953125 C 21.992188 0.0546875 19.597656 0.5625 16.828125 0.5625 Z M 16.828125 0.5625 "/></g></g></g><g fill="#000000" fill-opacity="1"><g transform="translate(276.261744, 67.234604)"><g><path d="M 2.984375 0 L 2.984375 -29.640625 L 12.15625 -29.640625 L 12.15625 -24.234375 L 12.46875 -24.234375 C 13 -26.179688 13.875 -27.632812 15.09375 -28.59375 C 16.320312 -29.550781 17.75 -30.03125 19.375 -30.03125 C 19.8125 -30.03125 20.257812 -30 20.71875 -29.9375 C 21.1875 -29.882812 21.617188 -29.800781 22.015625 -29.6875 L 22.015625 -21.484375 C 21.566406 -21.640625 20.976562 -21.765625 20.25 -21.859375 C 19.519531 -21.953125 18.875 -22 18.3125 -22 C 17.1875 -22 16.175781 -21.75 15.28125 -21.25 C 14.394531 -20.757812 13.695312 -20.070312 13.1875 -19.1875 C 12.675781 -18.300781 12.421875 -17.269531 12.421875 -16.09375 L 12.421875 0 Z M 2.984375 0 "/></g></g></g><g fill="#000000" fill-opacity="1"><g transform="translate(297.782898, 67.234604)"><g><path d="M 22.109375 -12.796875 L 22.109375 -29.640625 L 31.53125 -29.640625 L 31.53125 0 L 22.53125 0 L 22.53125 -5.515625 L 22.21875 -5.515625 C 21.5625 -3.703125 20.445312 -2.265625 18.875 -1.203125 C 17.300781 -0.140625 15.398438 0.390625 13.171875 0.390625 C 11.148438 0.390625 9.375 -0.0703125 7.84375 -1 C 6.320312 -1.925781 5.132812 -3.222656 4.28125 -4.890625 C 3.4375 -6.554688 3.003906 -8.507812 2.984375 -10.75 L 2.984375 -29.640625 L 12.421875 -29.640625 L 12.421875 -12.59375 C 12.429688 -10.988281 12.851562 -9.722656 13.6875 -8.796875 C 14.53125 -7.867188 15.671875 -7.40625 17.109375 -7.40625 C 18.046875 -7.40625 18.890625 -7.613281 19.640625 -8.03125 C 20.398438 -8.445312 21 -9.054688 21.4375 -9.859375 C 21.882812 -10.671875 22.109375 -11.648438 22.109375 -12.796875 Z M 22.109375 -12.796875 "/></g></g></g><g fill="#000000" fill-opacity="1"><g transform="translate(330.955931, 67.234604)"><g><path d="M 2.984375 0 L 2.984375 -39.515625 L 12.421875 -39.515625 L 12.421875 -24.5625 L 12.625 -24.5625 C 13.007812 -25.457031 13.554688 -26.320312 14.265625 -27.15625 C 14.984375 -28 15.894531 -28.6875 17 -29.21875 C 18.113281 -29.75 19.453125 -30.015625 21.015625 -30.015625 C 23.066406 -30.015625 24.988281 -29.472656 26.78125 -28.390625 C 28.582031 -27.316406 30.035156 -25.65625 31.140625 -23.40625 C 32.242188 -21.15625 32.796875 -18.285156 32.796875 -14.796875 C 32.796875 -11.441406 32.265625 -8.628906 31.203125 -6.359375 C 30.140625 -4.097656 28.710938 -2.398438 26.921875 -1.265625 C 25.128906 -0.140625 23.140625 0.421875 20.953125 0.421875 C 19.460938 0.421875 18.171875 0.175781 17.078125 -0.3125 C 15.984375 -0.800781 15.066406 -1.441406 14.328125 -2.234375 C 13.585938 -3.035156 13.019531 -3.890625 12.625 -4.796875 L 12.328125 -4.796875 L 12.328125 0 Z M 12.234375 -14.8125 C 12.234375 -13.21875 12.445312 -11.828125 12.875 -10.640625 C 13.3125 -9.460938 13.9375 -8.546875 14.75 -7.890625 C 15.5625 -7.242188 16.539062 -6.921875 17.6875 -6.921875 C 18.84375 -6.921875 19.828125 -7.242188 20.640625 -7.890625 C 21.453125 -8.546875 22.066406 -9.460938 22.484375 -10.640625 C 22.898438 -11.828125 23.109375 -13.21875 23.109375 -14.8125 C 23.109375 -16.40625 22.898438 -17.785156 22.484375 -18.953125 C 22.066406 -20.128906 21.457031 -21.039062 20.65625 -21.6875 C 19.851562 -22.332031 18.863281 -22.65625 17.6875 -22.65625 C 16.53125 -22.65625 15.546875 -22.335938 14.734375 -21.703125 C 13.929688 -21.078125 13.3125 -20.175781 12.875 -19 C 12.445312 -17.832031 12.234375 -16.4375 12.234375 -14.8125 Z M 12.234375 -14.8125 "/></g></g></g></svg>