<svg xmlns="http://www.w3.org/2000/svg" xmlns:xlink="http://www.w3.org/1999/xlink" width="500" zoomAndPan="magnify" viewBox="0 0 375 374.999991" height="500" preserveAspectRatio="xMidYMid meet" version="1.0"><defs><clipPath id="82ea9e3526"><path d="M 102 188 L 244 188 L 244 330 L 102 330 Z M 102 188 " clip-rule="nonzero"/></clipPath><clipPath id="0792f59dee"><path d="M 130.566406 168.742188 L 263.378906 216.15625 L 215.960938 348.96875 L 83.148438 301.554688 Z M 130.566406 168.742188 " clip-rule="nonzero"/></clipPath><clipPath id="fba8a15132"><path d="M 196.972656 192.449219 C 160.296875 179.355469 119.949219 198.472656 106.859375 235.148438 C 93.765625 271.824219 112.878906 312.167969 149.554688 325.261719 C 186.230469 338.355469 226.578125 319.238281 239.667969 282.5625 C 252.761719 245.890625 233.648438 205.542969 196.972656 192.449219 Z M 196.972656 192.449219 " clip-rule="nonzero"/></clipPath><clipPath id="991dc78382"><path d="M 0 0 L 142 0 L 142 142 L 0 142 Z M 0 0 " clip-rule="nonzero"/></clipPath><clipPath id="e54a8fed04"><path d="M 28.566406 -19.257812 L 161.378906 28.15625 L 113.960938 160.96875 L -18.851562 113.554688 Z M 28.566406 -19.257812 " clip-rule="nonzero"/></clipPath><clipPath id="0ac41f82d7"><path d="M 94.972656 4.449219 C 58.296875 -8.644531 17.949219 10.472656 4.859375 47.148438 C -8.234375 83.824219 10.878906 124.167969 47.554688 137.261719 C 84.230469 150.355469 124.578125 131.238281 137.667969 94.5625 C 150.761719 57.890625 131.648438 17.542969 94.972656 4.449219 Z M 94.972656 4.449219 " clip-rule="nonzero"/></clipPath><clipPath id="9db09832ef"><rect x="0" width="142" y="0" height="142"/></clipPath><clipPath id="3e5cc9af40"><path d="M 8 246 L 124 246 L 124 361 L 8 361 Z M 8 246 " clip-rule="nonzero"/></clipPath><clipPath id="5e33381fe5"><path d="M 31.246094 230.125 L 139.230469 268.675781 L 100.679688 376.65625 L -7.304688 338.105469 Z M 31.246094 230.125 " clip-rule="nonzero"/></clipPath><clipPath id="26083d99c9"><path d="M 85.238281 249.398438 C 55.417969 238.753906 22.617188 254.296875 11.972656 284.117188 C 1.324219 313.933594 16.867188 346.738281 46.6875 357.382812 C 76.503906 368.027344 109.308594 352.484375 119.953125 322.667969 C 130.597656 292.847656 115.054688 260.046875 85.238281 249.398438 Z M 85.238281 249.398438 " clip-rule="nonzero"/></clipPath><clipPath id="cdc28a8d76"><path d="M 0 0 L 116 0 L 116 115 L 0 115 Z M 0 0 " clip-rule="nonzero"/></clipPath><clipPath id="ae6566050d"><path d="M 23.246094 -15.875 L 131.230469 22.675781 L 92.679688 130.65625 L -15.304688 92.105469 Z M 23.246094 -15.875 " clip-rule="nonzero"/></clipPath><clipPath id="d93f333c0d"><path d="M 77.238281 3.398438 C 47.417969 -7.246094 14.617188 8.296875 3.972656 38.117188 C -6.675781 67.933594 8.867188 100.738281 38.6875 111.382812 C 68.503906 122.027344 101.308594 106.484375 111.953125 76.667969 C 122.597656 46.847656 107.054688 14.046875 77.238281 3.398438 Z M 77.238281 3.398438 " clip-rule="nonzero"/></clipPath><clipPath id="e6f223b044"><rect x="0" width="116" y="0" height="115"/></clipPath><clipPath id="9bdae897c4"><path d="M 238 14 L 365 14 L 365 142 L 238 142 Z M 238 14 " clip-rule="nonzero"/></clipPath><clipPath id="70bb42281d"><path d="M 263.035156 -2.8125 L 382.019531 39.667969 L 339.539062 158.652344 L 220.554688 116.171875 Z M 263.035156 -2.8125 " clip-rule="nonzero"/></clipPath><clipPath id="a23343c66d"><path d="M 322.527344 18.429688 C 289.667969 6.699219 253.523438 23.824219 241.792969 56.679688 C 230.0625 89.539062 247.191406 125.683594 280.046875 137.414062 C 312.902344 149.144531 349.046875 132.015625 360.777344 99.160156 C 372.507812 66.304688 355.382812 30.160156 322.527344 18.429688 Z M 322.527344 18.429688 " clip-rule="nonzero"/></clipPath><clipPath id="6a6548bb10"><path d="M 0 0 L 127 0 L 127 128 L 0 128 Z M 0 0 " clip-rule="nonzero"/></clipPath><clipPath id="beb415bc77"><path d="M 25.035156 -16.8125 L 144.019531 25.667969 L 101.539062 144.652344 L -17.445312 102.171875 Z M 25.035156 -16.8125 " clip-rule="nonzero"/></clipPath><clipPath id="bb14b3e841"><path d="M 84.527344 4.429688 C 51.667969 -7.300781 15.523438 9.824219 3.792969 42.679688 C -7.9375 75.539062 9.191406 111.683594 42.046875 123.414062 C 74.902344 135.144531 111.046875 118.015625 122.777344 85.160156 C 134.507812 52.304688 117.382812 16.160156 84.527344 4.429688 Z M 84.527344 4.429688 " clip-rule="nonzero"/></clipPath><clipPath id="bba445054d"><rect x="0" width="127" y="0" height="128"/></clipPath><clipPath id="cf752b628c"><path d="M 86 27 L 270 27 L 270 211 L 86 211 Z M 86 27 " clip-rule="nonzero"/></clipPath><clipPath id="9f53ace3bf"><path d="M 122.710938 2.101562 L 294.75 63.523438 L 233.332031 235.5625 L 61.292969 174.140625 Z M 122.710938 2.101562 " clip-rule="nonzero"/></clipPath><clipPath id="00a6375c5e"><path d="M 208.730469 32.8125 C 161.222656 15.851562 108.960938 40.613281 92 88.121094 C 75.039062 135.628906 99.804688 187.890625 147.3125 204.851562 C 194.820312 221.8125 247.082031 197.050781 264.039062 149.542969 C 281 102.035156 256.238281 49.773438 208.730469 32.8125 Z M 208.730469 32.8125 " clip-rule="nonzero"/></clipPath><clipPath id="0777bd0ab9"><path d="M 0 0 L 184 0 L 184 184 L 0 184 Z M 0 0 " clip-rule="nonzero"/></clipPath><clipPath id="b775b6c84e"><path d="M 36.710938 -24.898438 L 208.75 36.523438 L 147.332031 208.5625 L -24.707031 147.140625 Z M 36.710938 -24.898438 " clip-rule="nonzero"/></clipPath><clipPath id="4485d7712f"><path d="M 122.730469 5.8125 C 75.222656 -11.148438 22.960938 13.613281 6 61.121094 C -10.960938 108.628906 13.804688 160.890625 61.3125 177.851562 C 108.820312 194.8125 161.082031 170.050781 178.039062 122.542969 C 195 75.035156 170.238281 22.773438 122.730469 5.8125 Z M 122.730469 5.8125 " clip-rule="nonzero"/></clipPath><clipPath id="3e531e24d6"><rect x="0" width="184" y="0" height="184"/></clipPath><clipPath id="9cbf3df98a"><rect x="0" width="375" y="0" height="375"/></clipPath></defs><g transform="matrix(1, 0, 0, 1, 0, 0)"><g clip-path="url(#9cbf3df98a)"><g clip-path="url(#82ea9e3526)"><g clip-path="url(#0792f59dee)"><g clip-path="url(#fba8a15132)"><g transform="matrix(1, 0, 0, 1, 102, 188)"><g clip-path="url(#9db09832ef)"><g clip-path="url(#991dc78382)"><g clip-path="url(#e54a8fed04)"><g clip-path="url(#0ac41f82d7)"><path fill="#57cf8b" d="M 28.566406 -19.257812 L 161.378906 28.15625 L 113.960938 160.96875 L -18.851562 113.554688 Z M 28.566406 -19.257812 " fill-opacity="1" fill-rule="nonzero"/></g></g></g></g></g></g></g></g><g clip-path="url(#3e5cc9af40)"><g clip-path="url(#5e33381fe5)"><g clip-path="url(#26083d99c9)"><g transform="matrix(1, 0, 0, 1, 8, 246)"><g clip-path="url(#e6f223b044)"><g clip-path="url(#cdc28a8d76)"><g clip-path="url(#ae6566050d)"><g clip-path="url(#d93f333c0d)"><path fill="#292929" d="M 23.246094 -15.875 L 131.230469 22.675781 L 92.679688 130.65625 L -15.304688 92.105469 Z M 23.246094 -15.875 " fill-opacity="1" fill-rule="nonzero"/></g></g></g></g></g></g></g></g><g clip-path="url(#9bdae897c4)"><g clip-path="url(#70bb42281d)"><g clip-path="url(#a23343c66d)"><g transform="matrix(1, 0, 0, 1, 238, 14)"><g clip-path="url(#bba445054d)"><g clip-path="url(#6a6548bb10)"><g clip-path="url(#beb415bc77)"><g clip-path="url(#bb14b3e841)"><path fill="#2c14c4" d="M 25.035156 -16.8125 L 144.019531 25.667969 L 101.539062 144.652344 L -17.445312 102.171875 Z M 25.035156 -16.8125 " fill-opacity="1" fill-rule="nonzero"/></g></g></g></g></g></g></g></g><g clip-path="url(#cf752b628c)"><g clip-path="url(#9f53ace3bf)"><g clip-path="url(#00a6375c5e)"><g transform="matrix(1, 0, 0, 1, 86, 27)"><g clip-path="url(#3e531e24d6)"><g clip-path="url(#0777bd0ab9)"><g clip-path="url(#b775b6c84e)"><g clip-path="url(#4485d7712f)"><path fill="#006f46" d="M 36.710938 -24.898438 L 208.75 36.523438 L 147.332031 208.5625 L -24.707031 147.140625 Z M 36.710938 -24.898438 " fill-opacity="1" fill-rule="nonzero"/></g></g></g></g></g></g></g></g></g></g></svg>